PathFileType	4	(X/Y/Z)	jog.trc
DataRate	CameraRate	NumFrames	NumMarkers	Units	OrigDataRate	OrigDataStartFrame	OrigNumFrames
250.000000	250.000000	4	51	mm	250.000000	209	837
Frame#	Time	C7			RSH			LSH			MAN			T7			LARM			LELB			LFOREARM			LWR			RARM			RELB			RFOREARM			RWR			RASI			LASI			SACR			P1			P2			P3			LTHLP			LTHLD			LTHAP			LTHAD			LLEPI			LPAT			LTIAP			LTIAD			LTILAT			LLMAL			LHEEL			LMFS			LMFL			LP1MT			LTOE			LP5MT			RTHLP			RTHLD			RTHAP			RTHAD			RLEPI			RPAT			RTIAP			RTIAD			RTILAT			RLMAL			RHEEL			RMFS			RMFL			RP1MT			RTOE			RP5MT			
		X1	Y1	Z1	X2	Y2	Z2	X3	Y3	Z3	X4	Y4	Z4	X5	Y5	Z5	X6	Y6	Z6	X7	Y7	Z7	X8	Y8	Z8	X9	Y9	Z9	X10	Y10	Z10	X11	Y11	Z11	X12	Y12	Z12	X13	Y13	Z13	X14	Y14	Z14	X15	Y15	Z15	X16	Y16	Z16	X17	Y17	Z17	X18	Y18	Z18	X19	Y19	Z19	X20	Y20	Z20	X21	Y21	Z21	X22	Y22	Z22	X23	Y23	Z23	X24	Y24	Z24	X25	Y25	Z25	X26	Y26	Z26	X27	Y27	Z27	X28	Y28	Z28	X29	Y29	Z29	X30	Y30	Z30	X31	Y31	Z31	X32	Y32	Z32	X33	Y33	Z33	X34	Y34	Z34	X35	Y35	Z35	X36	Y36	Z36	X37	Y37	Z37	X38	Y38	Z38	X39	Y39	Z39	X40	Y40	Z40	X41	Y41	Z41	X42	Y42	Z42	X43	Y43	Z43	X44	Y44	Z44	X45	Y45	Z45	X46	Y46	Z46	X47	Y47	Z47	X48	Y48	Z48	X49	Y49	Z49	X50	Y50	Z50	X51	Y51	Z51	

210	0.836	-2492.486816406251	1602.538940429688	225.3313751220704	-2476.199707031251	1597.792114257813	393.9093933105471	-2459.331542968751	1585.079833984376	70.27418518066409	-2360.456054687501	1504.3564453125	251.9795837402345	-2565.483642578126	1416.263305664063	229.3291015625001	-2489.974121093751	1399.873657226563	-28.8990936279297	-2512.242431640626	1266.024780273438	-61.37411117553714	-2389.564941406251	1281.042724609375	5.326739311218263	-2281.003417968751	1303.274169921875	58.05624008178714	-2606.997070312501	1501.5615234375	481.7244873046877	-2720.848632812501	1428.303344726563	523.1336059570315	-2675.822998046876	1290.20654296875	536.8667602539065	-2644.163330078126	1160.468017578125	534.2444458007815	-2381.252441406251	1129.33154296875	326.9956970214845	-2401.671142578126	1111.59326171875	118.4491577148438	-2569.463378906251	1174.314575195313	253.6185150146486	-2583.962158203126	1148.046020507813	201.5758666992189	-2579.898437500001	1143.294555664063	308.4205322265626	-2612.655517578126	1091.378784179688	254.5110168457032	-2584.775878906251	843.6055297851567	69.99802398681643	-2620.106689453126	736.517761230469	89.34730529785159	-2458.693359375001	793.9407348632817	140.606918334961	-2511.731445312501	691.2919921875002	153.7082519531251	-2669.996337890626	629.9055175781252	120.0036621093751	-2590.673828125001	569.7414550781252	172.5226593017579	-2791.373046875001	500.3250732421877	194.1077728271486	-2912.769531250001	433.3894653320315	201.6687316894532	-2882.907226562501	512.8048095703127	131.6357116699219	-3062.336669921876	388.3231201171877	161.4504699707032	-3099.737792968752	434.4679260253909	221.3080902099611	-3031.946777343751	280.4898986816407	201.5962677001954	-3081.029785156252	304.669158935547	150.8561401367188	-3059.017089843751	210.3366699218751	241.5187377929689	-3046.816894531251	182.2740631103516	198.5096588134767	-3110.936279296877	232.9697723388673	129.2594299316407	-2401.580322265626	865.2143554687505	436.4369812011721	-2349.687011718751	764.0797119140627	422.8346862792971	-2285.689697265626	878.8247070312505	347.2518920898439	-2253.562988281251	789.8162231445317	339.5737609863282	-2285.442382812501	630.1717529296877	385.3601379394534	-2202.599853515626	656.9273681640627	327.8815002441407	-2216.032714843751	427.958190917969	300.3378906250001	-2198.730957031251	302.9014587402345	284.8360290527345	-2256.559814453126	405.3089294433596	381.9413452148439	-2193.608642578126	173.0176086425782	336.8942260742189	-2258.007568359376	135.3278350830079	288.3524780273439	-2088.334960937501	182.8313751220704	288.8375854492189	-2122.461914062501	136.9426727294922	338.0834960937501	-2028.788330078126	146.7751770019532	236.5588684082032	-1996.909179687501	160.1557006835938	272.2526855468751	-2045.274780273438	101.6495895385743	352.6984252929689	
211	0.84	-2478.250488281251	1601.392944335938	225.9044952392579	-2461.119628906251	1596.263061523438	394.5238952636721	-2445.054199218751	1583.944213867188	70.56009674072268	-2344.546142578126	1503.03515625	252.1542968750001	-2551.133300781251	1415.268310546875	229.8719787597657	-2477.173583984376	1399.291381835938	-28.69492721557619	-2500.311767578126	1265.436157226563	-61.03721618652347	-2377.174316406251	1277.644653320313	5.556534767150881	-2267.568603515626	1297.324951171875	57.85980987548831	-2591.287353515626	1499.477905273438	482.8401184082034	-2704.769287109376	1425.868408203125	524.7412109375002	-2659.187500000001	1288.00341796875	538.3720703125002	-2626.960937500001	1158.484741210938	535.8109130859377	-2366.417724609376	1128.390258789063	326.7604980468751	-2387.357910156251	1110.81640625	118.1538085937501	-2555.437011718751	1172.7587890625	253.7012481689454	-2569.546386718751	1146.578491210938	201.5474090576173	-2565.398925781251	1142.008422851563	308.4721069335939	-2597.884521484376	1089.758544921875	254.5163421630861	-2568.147216796876	841.4099121093755	70.12283325195315	-2602.371093750001	733.9440917968752	89.45903015136722	-2441.295166015626	792.8017578125005	140.9998931884766	-2493.296630859376	689.511169433594	154.1143798828126	-2649.999511718751	627.1752929687502	120.4369277954102	-2571.901367187501	566.5622558593752	173.0757293701172	-2775.158691406251	500.6992492675784	194.4578552246095	-2898.579589843751	436.8186035156252	201.7811737060548	-2866.434570312501	515.4236450195315	131.6297454833985	-3048.614746093751	395.6547851562502	161.3003692626954	-3085.545410156252	442.3794860839846	221.4866333007814	-3020.592041015626	286.9942321777345	200.7501068115236	-3069.533203125001	312.9034118652345	149.7571563720704	-3049.219482421876	217.3983459472657	240.2128906250001	-3037.440429687501	189.2510528564454	197.0950927734376	-3100.235107421877	241.7809295654298	127.5317153930665	-2388.676757812501	862.863159179688	436.6804199218752	-2337.600097656251	761.3658447265627	423.3492126464846	-2272.657714843751	874.8545532226567	347.0875549316407	-2242.044433593751	785.4271850585942	339.2508850097657	-2273.087890625001	627.6499023437502	385.9297485351565	-2191.112060546876	654.5532836914065	326.8148498535157	-2202.043212890626	426.2781677246096	300.8086242675782	-2183.648925781251	301.3457946777345	285.196746826172	-2242.951660156251	403.1778259277346	381.8776855468751	-2177.586181640626	171.4416656494141	337.2077636718751	-2241.325195312501	133.027816772461	288.3081970214845	-2072.340332031251	182.2528533935547	289.5455627441407	-2106.172851562501	135.6409759521485	338.3167724609376	-2012.184936523438	147.0177612304688	237.0608825683595	-1980.497192382813	160.6033477783204	272.9004211425782	-2028.517822265626	101.1036987304688	352.8760986328126	
212	0.844	-2463.202636718751	1599.958374023438	226.3712921142579	-2445.887451171876	1594.568115234376	395.1685485839846	-2430.831298828126	1582.606567382813	70.9795837402344	-2329.948974609376	1501.4296875	252.1869049072267	-2537.200927734376	1414.181274414063	230.7168731689454	-2464.424072265626	1398.571899414063	-28.53139305114748	-2488.190429687501	1264.808959960938	-60.97812652587893	-2364.808593750001	1274.096435546875	5.322898864746096	-2254.325195312501	1291.095947265625	57.60443115234378	-2575.395996093751	1497.200073242188	484.1909484863284	-2688.502685546876	1423.276977539063	526.467956542969	-2642.207519531251	1285.52978515625	540.0032348632815	-2609.466552734376	1156.197631835938	537.4473266601565	-2351.987548828126	1127.26123046875	326.5724182128907	-2372.938476562501	1109.904663085938	117.7325592041016	-2540.959228515626	1171.5732421875	253.5742492675782	-2555.090087890626	1145.006958007813	201.4785003662111	-2550.964355468751	1140.487670898438	308.4967651367189	-2583.310302734376	1088.133422851563	254.6052246093751	-2551.286132812501	838.9417114257817	70.16166687011722	-2584.314208984376	731.1002197265627	89.48798370361331	-2422.207275390626	791.5258789062505	141.3030548095704	-2475.136474609376	687.4205322265627	155.1811218261719	-2631.660156250001	624.3491821289065	120.9936752319337	-2552.809082031251	562.9573974609377	173.1773376464844	-2758.739746093751	500.7053527832034	194.6641845703126	-2884.047607421876	439.944519042969	201.5449981689454	-2849.307128906251	517.596130371094	131.8217926025391	-3034.618164062501	402.7769165039065	161.3315887451172	-3070.749755859376	450.1990966796877	221.6176147460939	-3010.909912109376	293.3369750976564	199.2433166503907	-3057.139160156251	320.8052368164064	149.0603942871094	-3039.509033203126	224.4345092773439	238.7771301269532	-3028.108398437501	196.2138061523439	195.7130126953126	-3089.177246093752	250.6732025146486	126.1143035888672	-2375.541503906251	860.6751098632817	436.986022949219	-2325.187255859376	758.6884765625002	423.7649841308596	-2259.355957031251	871.0356445312505	347.2005920410157	-2230.293212890626	781.5734863281255	339.0234680175782	-2260.031982421876	625.0215454101565	386.2862854003909	-2179.534667968751	652.7066040039065	326.1043090820314	-2188.461425781251	424.4763793945315	301.1106567382814	-2169.176757812501	299.6463623046876	285.6631774902345	-2229.931884765626	400.9577331542971	381.6501464843751	-2162.648193359376	169.6047363281251	337.1738586425782	-2225.307128906251	130.1510314941407	288.2017822265626	-2057.183349609376	181.3623809814454	289.9131774902345	-2090.877441406251	134.3035888671876	338.4710388183595	-1996.766845703126	146.6824645996094	237.4696502685548	-1964.941284179688	160.3164215087891	273.3966064453126	-2012.792358398438	100.3191223144532	353.2319335937501	
213	0.848	-2448.950927734376	1598.370483398438	227.1248779296876	-2430.697021484376	1592.650634765626	395.7999572753909	-2416.681640625001	1581.175415039063	71.38220214843753	-2315.420410156251	1499.669189453125	252.205291748047	-2522.510253906251	1412.784912109375	231.2001495361329	-2451.657714843751	1397.634887695313	-28.40432548522951	-2476.305908203126	1263.911865234375	-60.70444488525393	-2352.497558593751	1270.209106445313	5.043971538543703	-2241.370849609376	1284.27978515625	57.42524719238284	-2559.503173828126	1494.599853515625	485.5330200195315	-2672.089355468751	1420.188720703125	528.3389282226565	-2625.152832031251	1282.797241210938	541.654968261719	-2591.758056640626	1153.683715820313	539.0782470703127	-2337.629150390626	1125.971801757813	326.3252563476564	-2358.369628906251	1108.71533203125	117.6829452514649	-2526.756347656251	1169.719970703125	253.5143890380861	-2540.712402343751	1143.03271484375	201.3529357910157	-2536.620117187501	1138.838134765625	308.4039611816407	-2568.624755859376	1086.178100585938	254.4760589599611	-2534.287597656251	836.2042846679692	70.08295440673831	-2566.035644531251	727.9246215820315	89.48770141601565	-2405.013916015626	789.880004882813	141.8060455322266	-2456.330810546876	685.2644653320315	155.5782165527344	-2611.737792968751	620.9763183593752	121.5594787597657	-2534.006591796876	559.4000244140627	174.259994506836	-2742.073974609376	500.5567932128909	194.9208984375001	-2868.776367187501	443.2998962402346	201.5590972900392	-2832.242431640626	519.7427368164065	131.737777709961	-3020.447509765626	410.0897521972659	161.0431823730469	-3055.546875000001	457.9380798339846	221.6822204589845	-2998.144775390626	299.9786071777345	199.4978485107423	-3044.571289062501	328.9845275878907	148.0898590087891	-3029.206054687501	231.5604553222657	237.5219268798829	-3018.484863281251	203.1716766357423	193.932342529297	-3077.995361328127	259.6163940429689	124.789421081543	-2362.047851562501	858.5078125000005	437.4524230957034	-2312.267089843751	756.3638305664065	424.0412292480471	-2245.978271484376	867.5217285156255	347.2393493652345	-2218.087646484376	778.346069335938	338.5485229492189	-2247.088134765626	622.459411621094	386.6632995605471	-2167.964111328126	651.329528808594	325.7388610839845	-2175.218750000001	422.6059570312502	301.4788208007814	-2155.099853515626	297.8916015625001	285.7447509765626	-2217.281982421876	398.6030273437502	381.3054809570314	-2148.645507812501	167.6366729736329	336.995086669922	-2211.083007812501	128.599594116211	287.9448547363282	-2042.984252929688	179.8091888427735	290.0000610351564	-2076.607177734376	132.6087951660157	338.374237060547	-1981.849731445313	145.7051849365235	237.8265991210939	-1950.937255859376	159.2785034179688	274.2305908203126	-1998.366333007813	99.19458007812506	353.686004638672	
